<svg width="40" height="40" viewBox="0 0 40 40" fill="none" xmlns="http://www.w3.org/2000/svg">
<circle cx="20" cy="20" r="20" fill="url(#paint0_linear_41260_4879)"/>
<circle cx="20" cy="20" r="15" fill="#FCF9F6"/>
<path d="M16.7248 11.1266C16.5822 11.1895 16.339 11.4454 16.2803 11.6005C16.2593 11.655 16.2425 11.8605 16.2425 12.0576V12.4099H15.8441C15.1354 12.4099 14.8837 12.6406 14.8292 13.3326L14.8041 13.6681H14.0198C13.1265 13.6681 12.9504 13.7058 12.6988 13.949C12.6107 14.0329 12.5017 14.1881 12.4514 14.2929L12.3633 14.4858V21.3217C12.3633 27.7424 12.3675 28.1659 12.4346 28.3127C12.5478 28.5476 12.7407 28.7447 12.9504 28.8453L13.1391 28.9334H18.6749C24.7894 28.9334 24.3701 28.9502 24.6636 28.6692C24.7433 28.5937 24.844 28.4595 24.8943 28.3672C24.9824 28.2121 24.9865 28.1324 24.9991 27.1385L25.0117 26.0816H25.1459C25.5527 26.0816 26.4795 25.7377 26.966 25.4064C27.6202 24.9619 28.2199 24.1902 28.5051 23.4354C28.7484 22.7853 28.8197 21.8459 28.6771 21.1539C28.4213 19.9252 27.5825 18.8516 26.4502 18.298C26.0769 18.1177 25.364 17.9038 25.1291 17.9038H25.0075V16.2137C25.0033 14.402 24.9991 14.3558 24.7811 14.0665C24.7181 13.9868 24.5798 13.8694 24.4707 13.8065C24.2736 13.689 24.2694 13.689 23.4055 13.6764L22.5332 13.6639V13.3619C22.5332 13.018 22.4451 12.7916 22.2564 12.6112C22.0803 12.4477 21.9419 12.4099 21.5309 12.4099H21.1576L21.1409 12.0409C21.1157 11.5796 21.0192 11.3657 20.7424 11.1895L20.5453 11.0679H18.7001C17.2658 11.0721 16.8213 11.0847 16.7248 11.1266ZM20.3944 12.3596C20.4153 12.909 20.4153 12.9216 20.5328 13.0222C20.646 13.1187 20.6795 13.1229 21.1912 13.1229C21.686 13.1229 21.7364 13.1313 21.7783 13.2025C21.8286 13.299 21.837 14.8801 21.7867 14.9597C21.7573 15.0017 21.1073 15.0101 18.6707 15.0017L15.5925 14.9891V14.0665V13.1438L16.1922 13.1229C16.9722 13.0977 16.9555 13.1145 16.9555 12.3931C16.9555 12.0493 16.9722 11.8647 17.0058 11.8312C17.0435 11.7934 17.4587 11.7809 18.7169 11.7892L20.3734 11.8018L20.3944 12.3596ZM14.8166 14.6075C14.8166 15.1443 14.9592 15.4714 15.2821 15.6601C15.4205 15.744 15.5002 15.744 18.6749 15.744H21.9251L22.1222 15.6307C22.4074 15.4588 22.5332 15.1904 22.5332 14.7291V14.381H23.2419C23.632 14.381 24.001 14.3978 24.0639 14.4229C24.282 14.5068 24.2946 14.6117 24.2946 16.3227V17.8912L24.0471 17.9205C23.5774 17.9751 22.9945 18.1806 22.5374 18.449C20.8641 19.4429 20.1134 21.4894 20.7424 23.3347C21.2038 24.6851 22.378 25.7294 23.7536 26.0187C23.9171 26.0523 24.1059 26.0816 24.173 26.0816H24.2988L24.2862 27.0504L24.2736 28.0192L24.1562 28.1198L24.0388 28.2205H18.6707H13.3027L13.202 28.1156L13.0972 28.015V21.3133C13.1014 16.113 13.1098 14.5949 13.1517 14.5446C13.2607 14.402 13.3656 14.3852 14.0953 14.381H14.8166V14.6075ZM25.3514 18.6838C26.4082 18.9229 27.2428 19.6022 27.7167 20.6004C27.9515 21.1036 28.0061 21.372 28.0019 22.0346C28.0019 22.584 27.9935 22.6469 27.8635 23.0202C27.4777 24.1609 26.5802 24.9954 25.4311 25.289C25.0327 25.3897 24.3407 25.398 23.9297 25.3058C22.6422 25.0122 21.6441 24.0267 21.3338 22.7434C21.2331 22.3282 21.2415 21.5817 21.3505 21.1665C21.686 19.9084 22.7429 18.9103 24.0052 18.6628C24.3197 18.5999 25.0327 18.6125 25.3514 18.6838Z" fill="#B17400"/>
<path d="M16.0115 16.6339C15.9653 16.6465 15.6969 16.8814 15.4159 17.1624L14.9043 17.6698L14.6737 17.4517C14.4849 17.2714 14.4178 17.2336 14.292 17.2336C14.0865 17.2336 13.9355 17.3846 13.9355 17.5943C13.9355 17.7327 13.9775 17.7914 14.3298 18.1521C14.703 18.5295 14.7366 18.5547 14.8959 18.5547C15.0637 18.5547 15.093 18.5295 15.7221 17.9047C16.0828 17.5482 16.4015 17.1959 16.435 17.1204C16.5147 16.9317 16.4434 16.7388 16.2589 16.6633C16.1834 16.6297 16.1121 16.6088 16.1079 16.6088C16.0995 16.613 16.0576 16.6214 16.0115 16.6339Z" fill="#B17400"/>
<path d="M16.9928 17.2743C16.8963 17.333 16.8167 17.5469 16.846 17.6727C16.8586 17.7272 16.9131 17.8153 16.9634 17.8614C17.0515 17.9453 17.1018 17.9453 19.6642 17.9453C21.0985 17.9453 22.3063 17.9327 22.3441 17.9201C22.4531 17.8782 22.5454 17.6601 22.5118 17.5008C22.4615 17.2198 22.5831 17.2324 19.681 17.2324C18.1125 17.2324 17.0347 17.2491 16.9928 17.2743Z" fill="#B17400"/>
<path d="M15.4201 19.3381L14.9001 19.8456L14.6946 19.6527C14.5814 19.5478 14.4388 19.4472 14.3843 19.4346C14.1494 19.3759 13.9355 19.5478 13.9355 19.7911C13.9355 19.9253 13.9775 19.984 14.3465 20.3488C14.9253 20.9234 14.8582 20.9402 15.7515 20.0511C16.4267 19.3801 16.4602 19.3381 16.4602 19.183C16.4602 18.9733 16.305 18.8265 16.0911 18.8265C15.9569 18.8265 15.8857 18.8768 15.4201 19.3381Z" fill="#B17400"/>
<path d="M17.0517 19.4547C16.821 19.547 16.7707 19.8951 16.9594 20.067C17.0433 20.1425 17.1439 20.1467 18.3979 20.1593C19.9286 20.1761 20.0292 20.1593 20.1257 19.9328C20.176 19.807 20.176 19.7735 20.1257 19.6434C20.088 19.5554 20.0167 19.4799 19.9538 19.4547C19.8154 19.4044 17.1817 19.4044 17.0517 19.4547Z" fill="#B17400"/>
<path d="M15.9905 21.0363C15.9569 21.0489 15.6969 21.2879 15.416 21.5647L14.9043 22.0721L14.6737 21.8541C14.4849 21.6737 14.4178 21.636 14.292 21.636C14.0865 21.636 13.9355 21.787 13.9355 21.9967C13.9355 22.1351 13.9775 22.1938 14.3298 22.5544C14.703 22.9319 14.7366 22.957 14.9001 22.957C15.0679 22.957 15.093 22.9319 15.7808 22.2399C16.4141 21.6066 16.4938 21.5102 16.4938 21.3886C16.4938 21.1411 16.2253 20.9524 15.9905 21.0363Z" fill="#B17400"/>
<path d="M16.9648 21.7186C16.9144 21.7647 16.8599 21.8528 16.8473 21.9073C16.8138 22.0373 16.8977 22.2512 17.0025 22.3057C17.0444 22.3309 17.6777 22.3477 18.5207 22.3477H19.9633L20.0598 22.2428C20.1982 22.0918 20.1898 21.8612 20.0388 21.7312C19.9298 21.6347 19.9256 21.6347 18.4913 21.6347C17.1074 21.6347 17.0528 21.6389 16.9648 21.7186Z" fill="#B17400"/>
<path d="M15.4453 23.7594L14.9001 24.2962L14.6778 24.0782C14.4849 23.8894 14.4346 23.8601 14.2878 23.8601C14.0656 23.8601 13.9355 23.9901 13.9355 24.2166C13.9355 24.3675 13.9691 24.4095 14.3256 24.7701C14.6988 25.1434 14.724 25.1602 14.9001 25.1602C15.0846 25.1602 15.093 25.1518 15.7682 24.4766C16.4308 23.8181 16.4518 23.7888 16.4518 23.621C16.4518 23.403 16.3512 23.2772 16.1457 23.2436C15.9905 23.2184 15.9821 23.2268 15.4453 23.7594Z" fill="#B17400"/>
<path d="M16.9592 23.9326C16.9089 23.9745 16.8586 24.0794 16.8418 24.1632C16.8208 24.2974 16.8376 24.3352 16.9467 24.4484L17.0725 24.5742H18.4983C19.8529 24.5742 19.9284 24.57 20.0249 24.4903C20.0836 24.4442 20.1423 24.3561 20.1549 24.2974C20.1801 24.1506 20.113 23.9535 20.0165 23.9032C19.9704 23.8781 19.3539 23.8613 18.4942 23.8613C17.1773 23.8613 17.0389 23.8697 16.9592 23.9326Z" fill="#B17400"/>
<path d="M15.9905 25.4574C15.9318 25.4784 15.6634 25.7174 15.395 25.99L14.9001 26.4765L14.703 26.2836C14.4724 26.0613 14.3256 26.0068 14.141 26.0823C13.9901 26.1452 13.9355 26.2374 13.9355 26.422C13.9355 26.5394 13.9943 26.6191 14.3465 26.9713C14.9253 27.5501 14.8582 27.5627 15.7431 26.682C16.1876 26.2416 16.456 25.9439 16.4728 25.8726C16.5105 25.7006 16.4266 25.5413 16.2631 25.4742C16.1834 25.4406 16.1121 25.4113 16.1079 25.4155C16.0995 25.4155 16.0492 25.4364 15.9905 25.4574Z" fill="#B17400"/>
<path d="M16.9467 26.1666C16.8376 26.2799 16.8208 26.3176 16.8418 26.4518C16.8963 26.7705 16.7328 26.7538 19.6768 26.7538C22.5663 26.7538 22.4531 26.7621 22.5118 26.4979C22.5495 26.3344 22.4699 26.1499 22.3398 26.0869C22.2644 26.0534 21.4843 26.0408 19.6558 26.0408H17.0725L16.9467 26.1666Z" fill="#B17400"/>
<path d="M25.3128 21.5612L23.8744 22.9955L23.1908 22.3161C22.5617 21.6912 22.4946 21.6367 22.3562 21.6367C22.2388 21.6367 22.1801 21.666 22.0962 21.7667C21.9746 21.9135 21.962 22.0099 22.0459 22.1735C22.0794 22.2364 22.4611 22.639 22.8972 23.0709C23.6857 23.8552 23.6899 23.8594 23.8744 23.8594H24.0631L25.6651 22.2532C27.2126 20.7098 27.2713 20.6427 27.2713 20.4918C27.2713 20.2737 27.1246 20.1269 26.9065 20.1269C26.7555 20.1269 26.6926 20.1856 25.3128 21.5612Z" fill="#B17400"/>
<defs>
<linearGradient id="paint0_linear_41260_4879" x1="0" y1="0" x2="29.6532" y2="45.2991" gradientUnits="userSpaceOnUse">
<stop stop-color="#F4EAD8"/>
<stop offset="1" stop-color="#E0B764"/>
</linearGradient>
</defs>
</svg>
