<svg width="56" height="56" viewBox="0 0 56 56" fill="none" xmlns="http://www.w3.org/2000/svg">
<path d="M27.9592 0C12.4959 0 0 12.5339 0 27.9592C0 40.1356 7.74748 50.4898 18.6395 54.3113V30.1357C19.8543 29.9585 21.0691 29.851 22.3535 29.851V55.3458C23.5651 55.5957 24.8178 55.7761 26.0674 55.8456V30.1357C27.3518 30.3508 28.6362 30.6355 29.7814 31.031V55.8456C31.0658 55.7761 32.3154 55.5957 33.5302 55.3458V32.7076C33.9921 32.9576 34.495 33.2423 34.9221 33.565C35.7794 34.1376 36.564 34.7798 37.2789 35.4947V54.3113C42.7076 52.4195 47.3484 48.8479 50.6701 44.2766C53.9539 39.6706 55.8836 34.0648 55.8836 27.9592C55.8836 12.5339 43.3845 0 27.9592 0ZM39.1359 27.994H16.7825V22.3882C25.3525 22.3882 33.1727 23.7454 39.1359 25.9251V27.994ZM42.8499 20.5313H13.0337V14.9603H42.8499V20.5313Z" fill="url(#paint0_linear_54055_299)"/>
<defs>
<linearGradient id="paint0_linear_54055_299" x1="0" y1="0" x2="41.3889" y2="63.2697" gradientUnits="userSpaceOnUse">
<stop stop-color="#F4EAD8"/>
<stop offset="1" stop-color="#E0B764"/>
</linearGradient>
</defs>
</svg>
