<svg width="116" height="56" viewBox="0 0 116 56" fill="none" xmlns="http://www.w3.org/2000/svg">
<path d="M27.9592 0C12.4959 0 0 12.5339 0 27.9592C0 40.1356 7.74748 50.4898 18.6395 54.3113V30.1357C19.8543 29.9585 21.0691 29.851 22.3535 29.851V55.3458C23.5651 55.5957 24.8178 55.7761 26.0674 55.8456V30.1357C27.3518 30.3508 28.6362 30.6355 29.7814 31.031V55.8456C31.0658 55.7761 32.3154 55.5957 33.5302 55.3458V32.7076C33.9921 32.9576 34.495 33.2423 34.9221 33.565C35.7794 34.1376 36.564 34.7798 37.2789 35.4947V54.3113C42.7076 52.4195 47.3484 48.8479 50.6701 44.2766C53.9539 39.6706 55.8836 34.0648 55.8836 27.9592C55.8836 12.5339 43.3845 0 27.9592 0ZM39.1359 27.994H16.7825V22.3882C25.3525 22.3882 33.1727 23.7454 39.1359 25.9251V27.994ZM42.8499 20.5313H13.0337V14.9603H42.8499V20.5313Z" fill="url(#paint0_linear_54055_298)"/>
<path d="M64.9384 17.8247V7.56853H60.9492V5.14844H71.6293V7.56853H67.6211V17.8247H64.9384Z" fill="url(#paint1_linear_54055_298)"/>
<path d="M74.7479 17.8254H72.293V5.15234H74.7479V9.63505C75.3995 8.77141 76.2126 8.22412 77.4495 8.22412C79.3381 8.22412 80.6447 9.46106 80.6447 11.7356V17.8254H78.2088V12.5645C78.2088 11.1694 77.6615 10.3943 76.5511 10.3943C75.5799 10.3943 74.751 11.1725 74.751 12.6878V17.8254H74.7479Z" fill="url(#paint2_linear_54055_298)"/>
<path d="M81.5969 13.0748C81.5969 10.2687 83.5551 8.21875 86.2758 8.21875C89.259 8.21875 91.2362 10.6388 90.7933 13.7075H84.1024C84.2606 15.2418 85.004 16.0896 86.2568 16.0896C87.3324 16.0896 88.0568 15.5613 88.3384 14.6249H90.7743C90.246 16.7603 88.6041 17.9782 86.3074 17.9782C83.4824 17.9782 81.5938 16.02 81.5938 13.0716M84.1372 12.1542H88.196C88.1264 10.8476 87.383 10.0188 86.2188 10.0188C85.0546 10.0188 84.346 10.7591 84.1372 12.1542Z" fill="url(#paint3_linear_54055_298)"/>
<path d="M70.5885 29.4762C70.5885 32.3171 68.8928 34.2943 65.7514 34.2943C62.6101 34.2943 60.984 32.3171 60.9492 29.6154H63.6319C63.6667 30.9568 64.214 31.8932 65.7514 31.8932C67.2889 31.8932 67.8868 30.9757 67.8868 29.5458V21.3555H70.5885V29.4762Z" fill="url(#paint4_linear_54055_298)"/>
<path d="M78.0343 24.6055H80.4702V34.0328H78.2272V32.7958C77.7147 33.6247 76.6739 34.2067 75.4718 34.2067C73.5832 34.2067 72.207 33.0584 72.207 30.6067V24.6055H74.6619V30.1321C74.6619 31.4545 75.3136 32.0397 76.3038 32.0397C77.1864 32.0397 78.0343 31.3343 78.0343 30.0625V24.6086V24.6055Z" fill="url(#paint5_linear_54055_298)"/>
<path d="M84.5234 21.3555H82.0527V34.0285H84.5234V21.3555Z" fill="url(#paint6_linear_54055_298)"/>
<path d="M86.0977 34.0328L86.2748 24.6055H88.3754L88.5526 34.0328H86.0977Z" fill="url(#paint7_linear_54055_298)"/>
<path d="M95.7443 32.8692C95.1274 33.7518 94.191 34.2106 92.9034 34.2106C90.9452 34.2106 89.6387 33.0622 89.6387 31.2969C89.6387 29.5317 91.1224 28.4719 93.8746 28.4719C94.4029 28.4719 94.8616 28.5067 95.4469 28.5763V28.0101C95.4469 26.9503 94.8458 26.3334 93.824 26.3334C92.8022 26.3334 92.1284 26.9503 92.0429 28.0101H89.8348C89.9772 25.8399 91.5463 24.4258 93.824 24.4258C96.2947 24.4258 97.7436 25.7861 97.7436 28.0986V34.0302H95.7474V32.8661L95.7443 32.8692ZM93.4317 32.5149C94.6845 32.5149 95.4437 31.8253 95.4437 30.7307V30.06C94.8616 29.9714 94.4536 29.9366 94.0328 29.9366C92.6377 29.9366 91.9512 30.3764 91.9512 31.2242C91.9512 32.0182 92.5175 32.5117 93.4349 32.5117" fill="url(#paint8_linear_54055_298)"/>
<path d="M101.717 34.0341H99.2617V24.6068H101.52V25.9482C102.21 25.0118 103.181 24.4297 104.415 24.4297C106.304 24.4297 107.61 25.6666 107.61 27.9412V34.031H105.174V28.77C105.174 27.3749 104.627 26.5999 103.517 26.5999C102.545 26.5999 101.717 27.3781 101.717 28.8934V34.031V34.0341Z" fill="url(#paint9_linear_54055_298)"/>
<path d="M88.4684 21.375H86.1875V23.6559H88.4684V21.375Z" fill="url(#paint10_linear_54055_298)"/>
<path d="M90.1832 37.9648H87.9023V40.2457H90.1832V37.9648Z" fill="url(#paint11_linear_54055_298)"/>
<path d="M63.6319 46.572V50.7036H60.9492V38.0273H65.6281C68.7157 38.0273 70.6423 39.4921 70.6423 42.2475C70.6423 45.0029 68.7188 46.572 65.6281 46.572H63.6319ZM63.6319 40.2861V44.3101H65.6091C67.1276 44.3101 67.9754 43.5161 67.9754 42.2633C67.9754 41.0105 67.1276 40.2861 65.6091 40.2861H63.6319Z" fill="url(#paint12_linear_54055_298)"/>
<path d="M73.8592 50.7036H71.4043V41.2763H73.6631V43.0953C74.3527 41.8963 75.8174 41.1719 77.3359 41.1719V43.7122C75.2543 43.554 73.8592 44.0475 73.8592 46.1323V50.7036Z" fill="url(#paint13_linear_54055_298)"/>
<path d="M77.4043 45.9884C77.4043 43.2362 79.4511 41.0977 82.1875 41.0977C84.924 41.0977 86.9708 43.233 86.9708 45.9884C86.9708 48.7439 84.924 50.8793 82.1875 50.8793C79.4511 50.8793 77.4043 48.7249 77.4043 45.9884ZM84.4494 45.9884C84.4494 44.2422 83.4086 43.2868 82.1907 43.2868C80.9727 43.2868 79.9319 44.239 79.9319 45.9884C79.9319 47.7379 80.9727 48.7059 82.1907 48.7059C83.4086 48.7059 84.4494 47.7347 84.4494 45.9884Z" fill="url(#paint14_linear_54055_298)"/>
<path d="M90.3506 50.6628C90.3506 53.2062 88.9744 54.2818 87.1016 54.2818C86.6587 54.2818 86.2 54.247 85.7793 54.0889V51.8111C86.045 51.9535 86.3962 52.0231 86.8043 52.0231C87.456 52.0231 87.9178 51.634 87.9178 50.5932V41.2734H90.3537V50.6659L90.3506 50.6628Z" fill="url(#paint15_linear_54055_298)"/>
<path d="M91.3 45.9537C91.3 43.1476 93.2583 41.0977 95.9789 41.0977C98.9621 41.0977 100.939 43.5177 100.496 46.5864H93.8056C93.9637 48.1207 94.7071 48.9685 95.9599 48.9685C97.0355 48.9685 97.7599 48.4402 98.0415 47.5038H100.477C99.9491 49.6392 98.3072 50.8571 96.0105 50.8571C93.1855 50.8571 91.2969 48.8989 91.2969 45.9505M93.8404 45.0331H97.8991C97.8295 43.7265 97.0861 42.8977 95.9219 42.8977C94.7578 42.8977 94.0492 43.638 93.8404 45.0331Z" fill="url(#paint16_linear_54055_298)"/>
<path d="M100.986 45.9884C100.986 43.1634 102.929 41.0977 105.577 41.0977C108.031 41.0977 109.847 42.7585 110.148 45.2988H107.57C107.446 44.046 106.687 43.2678 105.573 43.2678C104.302 43.2678 103.492 44.3086 103.492 45.9853C103.492 47.662 104.286 48.7028 105.573 48.7028C106.703 48.7028 107.427 47.9625 107.57 46.6718H110.148C109.866 49.2659 108.101 50.8729 105.577 50.8729C102.859 50.8729 100.986 48.8609 100.986 45.9821" fill="url(#paint17_linear_54055_298)"/>
<path d="M115.912 50.452C115.311 50.7525 114.748 50.8759 114.024 50.8759C112.081 50.8759 110.863 49.7623 110.863 47.6459V38.4844H113.299V41.2746H116.001V43.3752H113.299V47.0828C113.299 48.1774 113.793 48.6171 114.675 48.6171C115.134 48.6171 115.558 48.5096 115.912 48.3166V50.452Z" fill="url(#paint18_linear_54055_298)"/>
<defs>
<linearGradient id="paint0_linear_54055_298" x1="0" y1="0" x2="41.3889" y2="63.2697" gradientUnits="userSpaceOnUse">
<stop stop-color="#F4EAD8"/>
<stop offset="1" stop-color="#E0B764"/>
</linearGradient>
<linearGradient id="paint1_linear_54055_298" x1="60.9492" y1="5.14844" x2="70.8847" y2="17.9361" gradientUnits="userSpaceOnUse">
<stop stop-color="#F4EAD8"/>
<stop offset="1" stop-color="#E0B764"/>
</linearGradient>
<linearGradient id="paint2_linear_54055_298" x1="72.293" y1="5.15234" x2="82.5437" y2="15.472" gradientUnits="userSpaceOnUse">
<stop stop-color="#F4EAD8"/>
<stop offset="1" stop-color="#E0B764"/>
</linearGradient>
<linearGradient id="paint3_linear_54055_298" x1="81.5938" y1="8.21875" x2="88.9733" y2="18.9167" gradientUnits="userSpaceOnUse">
<stop stop-color="#F4EAD8"/>
<stop offset="1" stop-color="#E0B764"/>
</linearGradient>
<linearGradient id="paint4_linear_54055_298" x1="60.9492" y1="21.3555" x2="71.3282" y2="33.1674" gradientUnits="userSpaceOnUse">
<stop stop-color="#F4EAD8"/>
<stop offset="1" stop-color="#E0B764"/>
</linearGradient>
<linearGradient id="paint5_linear_54055_298" x1="72.207" y1="24.6055" x2="79.6914" y2="34.4453" gradientUnits="userSpaceOnUse">
<stop stop-color="#F4EAD8"/>
<stop offset="1" stop-color="#E0B764"/>
</linearGradient>
<linearGradient id="paint6_linear_54055_298" x1="82.0527" y1="21.3555" x2="87.6612" y2="23.0258" gradientUnits="userSpaceOnUse">
<stop stop-color="#F4EAD8"/>
<stop offset="1" stop-color="#E0B764"/>
</linearGradient>
<linearGradient id="paint7_linear_54055_298" x1="86.0977" y1="24.6055" x2="91.3356" y2="26.6891" gradientUnits="userSpaceOnUse">
<stop stop-color="#F4EAD8"/>
<stop offset="1" stop-color="#E0B764"/>
</linearGradient>
<linearGradient id="paint8_linear_54055_298" x1="89.6387" y1="24.4258" x2="97.3391" y2="34.1697" gradientUnits="userSpaceOnUse">
<stop stop-color="#F4EAD8"/>
<stop offset="1" stop-color="#E0B764"/>
</linearGradient>
<linearGradient id="paint9_linear_54055_298" x1="99.2617" y1="24.4297" x2="106.728" y2="34.3443" gradientUnits="userSpaceOnUse">
<stop stop-color="#F4EAD8"/>
<stop offset="1" stop-color="#E0B764"/>
</linearGradient>
<linearGradient id="paint10_linear_54055_298" x1="86.1875" y1="21.375" x2="87.8784" y2="23.9581" gradientUnits="userSpaceOnUse">
<stop stop-color="#F4EAD8"/>
<stop offset="1" stop-color="#E0B764"/>
</linearGradient>
<linearGradient id="paint11_linear_54055_298" x1="87.9023" y1="37.9648" x2="89.5933" y2="40.5479" gradientUnits="userSpaceOnUse">
<stop stop-color="#F4EAD8"/>
<stop offset="1" stop-color="#E0B764"/>
</linearGradient>
<linearGradient id="paint12_linear_54055_298" x1="60.9492" y1="38.0273" x2="71.0802" y2="49.8615" gradientUnits="userSpaceOnUse">
<stop stop-color="#F4EAD8"/>
<stop offset="1" stop-color="#E0B764"/>
</linearGradient>
<linearGradient id="paint13_linear_54055_298" x1="71.4043" y1="41.1719" x2="79.1044" y2="48.492" gradientUnits="userSpaceOnUse">
<stop stop-color="#F4EAD8"/>
<stop offset="1" stop-color="#E0B764"/>
</linearGradient>
<linearGradient id="paint14_linear_54055_298" x1="77.4043" y1="41.0977" x2="84.719" y2="52.026" gradientUnits="userSpaceOnUse">
<stop stop-color="#F4EAD8"/>
<stop offset="1" stop-color="#E0B764"/>
</linearGradient>
<linearGradient id="paint15_linear_54055_298" x1="85.7793" y1="41.2734" x2="94.5525" y2="45.9864" gradientUnits="userSpaceOnUse">
<stop stop-color="#F4EAD8"/>
<stop offset="1" stop-color="#E0B764"/>
</linearGradient>
<linearGradient id="paint16_linear_54055_298" x1="91.2969" y1="41.0977" x2="98.6764" y2="51.7956" gradientUnits="userSpaceOnUse">
<stop stop-color="#F4EAD8"/>
<stop offset="1" stop-color="#E0B764"/>
</linearGradient>
<linearGradient id="paint17_linear_54055_298" x1="100.986" y1="41.0977" x2="108.41" y2="51.7265" gradientUnits="userSpaceOnUse">
<stop stop-color="#F4EAD8"/>
<stop offset="1" stop-color="#E0B764"/>
</linearGradient>
<linearGradient id="paint18_linear_54055_298" x1="110.863" y1="38.4844" x2="119.925" y2="44.2236" gradientUnits="userSpaceOnUse">
<stop stop-color="#F4EAD8"/>
<stop offset="1" stop-color="#E0B764"/>
</linearGradient>
</defs>
</svg>
