<svg width="40" height="40" viewBox="0 0 40 40" fill="none" xmlns="http://www.w3.org/2000/svg">
<circle cx="20" cy="20" r="20" fill="url(#paint0_linear_41260_4927)"/>
<circle cx="20" cy="20" r="15" fill="#FCF9F6"/>
<path d="M19.6768 10.0405C19.4889 10.1259 19.3932 10.2558 19.1335 10.7752C18.9797 11.0794 18.843 11.3083 18.7985 11.3357C18.7541 11.363 18.5354 11.4108 18.3099 11.4416C17.6195 11.5373 17.5478 11.5578 17.394 11.6945C17.2163 11.8551 17.1309 12.0465 17.1309 12.2789C17.1309 12.5625 17.2231 12.7095 17.6571 13.1298C17.869 13.3314 18.0604 13.5296 18.0775 13.5672C18.1048 13.6151 18.0877 13.7859 18.016 14.196C17.9134 14.7838 17.9169 14.9103 18.0194 15.1187C18.1492 15.375 18.385 15.5083 18.7029 15.5083C18.9147 15.5083 18.9489 15.498 19.4649 15.2247L20.0015 14.941L20.5414 15.2247C21.054 15.4946 21.0882 15.5083 21.3001 15.5117C21.5837 15.5117 21.7853 15.4058 21.9357 15.1802C22.0861 14.9547 22.0929 14.8248 21.9836 14.1892C21.9152 13.7859 21.8981 13.6151 21.9255 13.5672C21.9425 13.5296 22.1339 13.3314 22.3458 13.1298C22.7798 12.7095 22.8721 12.5625 22.8721 12.2789C22.8721 12.0465 22.7866 11.8551 22.6089 11.6979C22.4517 11.5578 22.3663 11.5305 21.7102 11.4416C21.4744 11.4108 21.2488 11.363 21.2078 11.3391C21.1634 11.3117 21.0164 11.0623 20.8558 10.7479C20.5175 10.0815 20.4457 10.0165 20.0391 9.99946C19.8716 9.99605 19.7417 10.0097 19.6768 10.0405ZM20.0801 10.5428C20.1347 10.5668 20.2304 10.7205 20.3979 11.0623C20.5312 11.3322 20.6918 11.6091 20.767 11.6911C20.9276 11.8688 21.0574 11.9098 21.7067 11.9986C22.2125 12.0636 22.3253 12.1148 22.3253 12.2789C22.3253 12.3575 22.2433 12.4532 21.8845 12.7983C21.4778 13.1879 21.4402 13.2392 21.3855 13.4169C21.3308 13.6082 21.3343 13.6253 21.4299 14.1892C21.5325 14.8043 21.529 14.8898 21.3889 14.9513C21.3172 14.9854 21.2557 14.9649 20.9173 14.7906C20.7055 14.6813 20.4594 14.5548 20.3705 14.5104C20.1655 14.4045 19.8545 14.3976 19.6666 14.4933C19.5982 14.5275 19.3487 14.654 19.1198 14.7736C18.7507 14.9615 18.6858 14.9854 18.614 14.9513C18.4739 14.8898 18.4705 14.8043 18.573 14.2063C18.7131 13.3793 18.696 13.3348 18.0741 12.7505C17.746 12.4463 17.6776 12.3643 17.6776 12.2823C17.6776 12.1148 17.787 12.0636 18.2962 11.9986C18.9455 11.9098 19.0754 11.8688 19.236 11.6911C19.3112 11.6091 19.4718 11.3322 19.6051 11.0623C19.8101 10.6453 19.8819 10.5428 19.9912 10.5087C19.9946 10.5052 20.0356 10.5223 20.0801 10.5428Z" fill="#B17400"/>
<path d="M19.4243 15.6215C19.3628 15.6523 19.2705 15.7377 19.2192 15.8129L19.1304 15.9496L19.1201 17.1218L19.1099 18.2939L18.5836 18.3042C18.0915 18.3144 18.0505 18.3178 17.9787 18.3896C17.883 18.4853 17.8796 18.6767 17.9685 18.7758C18.0266 18.8407 18.0676 18.8441 18.7784 18.8441C19.479 18.8441 19.5268 18.8407 19.5917 18.7758C19.6567 18.7108 19.6601 18.663 19.6601 17.4088V16.1102H19.9847H20.306L20.3162 17.4054C20.3265 18.6152 20.3299 18.704 20.3914 18.7724C20.4529 18.8407 20.4803 18.8407 22.5375 18.851L24.6221 18.8612L24.7212 18.974L24.8203 19.0833V20.8911C24.8203 22.6579 24.8203 22.6989 24.8887 22.7844L24.9605 22.8732L26.4709 22.8835C28.0771 22.8937 28.06 22.8937 28.1728 23.0612C28.2104 23.1193 28.2241 23.42 28.2309 24.6537C28.2377 25.491 28.2309 26.2086 28.2206 26.253C28.2036 26.3282 28.1899 26.3316 27.8857 26.3214L27.5713 26.3111L27.5543 24.9852C27.5372 23.7207 27.5338 23.6558 27.4722 23.608C27.4176 23.5704 27.2501 23.5601 26.6623 23.5601H25.9173L25.849 23.649C25.767 23.7515 25.7601 23.8267 25.8148 23.9497C25.8729 24.0762 26.0096 24.1069 26.5325 24.1069H27.0075V25.1902C27.0075 25.7883 27.0246 26.3385 27.0416 26.4102C27.0827 26.5948 27.1715 26.7075 27.3492 26.7998C27.4791 26.8647 27.5543 26.875 27.896 26.875C28.2377 26.875 28.3129 26.8647 28.4428 26.7998C28.5282 26.7554 28.6307 26.67 28.6752 26.605L28.7538 26.4854L28.7435 24.705L28.7333 22.9211L28.6307 22.7536C28.5658 22.6511 28.4633 22.5486 28.3608 22.4836L28.1933 22.3811L26.7785 22.3709L25.3671 22.3606V20.6793V18.9979L25.2851 18.827C25.1894 18.6254 25.0254 18.4614 24.8374 18.3759C24.711 18.3178 24.5435 18.3144 22.7802 18.3042L20.8562 18.2939V17.1218C20.8562 15.9598 20.8562 15.9496 20.7776 15.8334C20.7366 15.7719 20.6477 15.683 20.5862 15.642C20.4803 15.5703 20.4324 15.5634 20.0052 15.5634C19.643 15.5634 19.5165 15.5771 19.4243 15.6215Z" fill="#B17400"/>
<path d="M15.3133 18.3281C15.1082 18.3691 14.8724 18.5366 14.7562 18.7211L14.6537 18.8886L14.6435 20.6246L14.6332 22.3606L13.2218 22.3709L11.8105 22.3811L11.643 22.4836C11.5405 22.5486 11.438 22.6511 11.373 22.7536L11.2705 22.9211L11.2603 24.705L11.25 26.4854L11.3286 26.605C11.373 26.67 11.4755 26.7554 11.561 26.7964C11.6908 26.8647 11.766 26.875 12.1078 26.875C12.4495 26.875 12.5247 26.8647 12.6545 26.7998C12.8323 26.7075 12.9211 26.5948 12.9621 26.4102C12.9792 26.3385 12.9963 25.7883 12.9963 25.1902V24.1069H15.5081H18.0199V25.2244C18.0233 26.3966 18.0369 26.5162 18.1805 26.6768C18.3103 26.8272 18.488 26.875 18.9084 26.875C19.2501 26.875 19.3253 26.8647 19.4552 26.7964C19.5406 26.7554 19.6431 26.67 19.6875 26.605L19.7661 26.4854L19.7559 24.705L19.7456 22.9211L19.6431 22.7536C19.5782 22.6511 19.4757 22.5486 19.3731 22.4836L19.2057 22.3811L17.7909 22.3709L16.3795 22.3606V21.2021V20.0402H20.0019H23.6244V21.2021V22.3606L22.213 22.3709L20.7982 22.3811L20.6307 22.4836C20.5282 22.5486 20.4257 22.6511 20.3608 22.7536L20.2582 22.9211V24.7255C20.2582 26.4923 20.2582 26.5298 20.33 26.6255C20.3676 26.6768 20.4667 26.7554 20.5487 26.7998C20.6786 26.8647 20.7504 26.875 21.0955 26.875C21.5159 26.875 21.6936 26.8272 21.8234 26.6768C21.9669 26.5162 21.9806 26.3966 21.984 25.2244V24.1069H23.5014C25.0631 24.1069 25.1964 24.0967 25.2647 23.9702C25.3228 23.8609 25.3023 23.7139 25.2203 23.6353L25.1417 23.5601H23.3647C21.8849 23.5601 21.5774 23.567 21.5193 23.608C21.4578 23.6558 21.4543 23.7207 21.4373 24.9852L21.4202 26.3111L21.1058 26.3214L20.7879 26.3316V24.7118V23.0919L20.8734 23.0065C20.9212 22.9587 21.0169 22.9108 21.0887 22.8972C21.157 22.8869 21.8473 22.8766 22.6231 22.8766C24.0276 22.8766 24.0311 22.8766 24.1028 22.8015C24.1677 22.7297 24.1712 22.6887 24.1712 21.2021C24.1712 19.7258 24.1677 19.6746 24.1028 19.6028C24.0652 19.5652 23.9832 19.5208 23.9251 19.5105C23.8636 19.5003 22.0455 19.4968 19.8892 19.5003L15.9626 19.5105L15.8977 19.5925C15.8361 19.6677 15.8327 19.7463 15.8327 21.2055C15.8327 22.6955 15.8361 22.7434 15.9011 22.8083C15.966 22.8732 16.0138 22.8766 17.3808 22.8766C18.1531 22.8766 18.8469 22.8869 18.9152 22.8972C18.987 22.9108 19.0827 22.9587 19.1305 23.0065L19.2159 23.0919V24.7118V26.3316L18.9015 26.3214L18.5837 26.3111L18.5666 24.9852C18.5496 23.7207 18.5461 23.6558 18.4846 23.608C18.3855 23.5362 12.6306 23.5362 12.5315 23.608C12.47 23.6558 12.4666 23.7207 12.4495 24.9852L12.4324 26.3111L12.118 26.3214C11.8139 26.3316 11.8002 26.3282 11.7831 26.253C11.7729 26.2086 11.766 25.491 11.7729 24.6537C11.7797 23.42 11.7934 23.1193 11.831 23.0612C11.9437 22.8937 11.9266 22.8937 13.5294 22.8835C15.0057 22.8732 15.0399 22.8732 15.1014 22.8049C15.1629 22.7365 15.1663 22.6272 15.1834 20.8809C15.1937 19.8659 15.2142 19.0116 15.2313 18.9842C15.3099 18.8646 15.4705 18.8441 16.3795 18.8441C17.2236 18.8441 17.2714 18.8407 17.3364 18.7758C17.4252 18.6869 17.4252 18.5024 17.3398 18.3964L17.2749 18.3144L16.3556 18.3076C15.8532 18.3042 15.3816 18.3144 15.3133 18.3281Z" fill="#B17400"/>
<defs>
<linearGradient id="paint0_linear_41260_4927" x1="0" y1="0" x2="29.6532" y2="45.2991" gradientUnits="userSpaceOnUse">
<stop stop-color="#F4EAD8"/>
<stop offset="1" stop-color="#E0B764"/>
</linearGradient>
</defs>
</svg>
