<svg width="40" height="40" viewBox="0 0 40 40" fill="none" xmlns="http://www.w3.org/2000/svg">
<circle cx="20" cy="20" r="20" fill="url(#paint0_linear_41260_4916)"/>
<circle cx="20" cy="20" r="15" fill="#FCF9F6"/>
<path d="M22.9006 11.2618C21.2496 11.3674 19.8099 12.2862 18.9018 13.8103C18.8701 13.8667 18.7891 13.8244 18.0921 13.4091C16.9868 12.7438 16.9798 12.7473 16.7862 13.6942L16.7264 14.004L16.3075 14.2187C15.5682 14.5953 14.9346 15.1409 14.5087 15.771L14.2975 16.0773H13.502C12.8719 16.0773 12.6642 16.0878 12.5128 16.1336C11.8264 16.3378 11.3653 16.8834 11.2843 17.5944C11.2386 17.9992 11.2386 21.0195 11.2843 21.1884C11.3054 21.2623 11.3512 21.3363 11.3899 21.3574C11.4251 21.3785 11.7243 21.3926 12.0728 21.3926H12.6888L12.6994 23.9869L12.71 26.5847L12.812 26.8029C12.9317 27.0634 13.238 27.3732 13.4914 27.4929L13.6604 27.5703H17.8493H22.0381L22.2493 27.4682C22.5134 27.338 22.8231 27.0317 22.9463 26.7783C23.0801 26.5073 23.1188 26.2397 23.1047 25.7152C23.0906 25.1239 23.0906 25.1239 22.545 25.1239H22.1613V23.0611C22.1613 21.111 22.1649 20.9983 22.2247 21.023C22.2564 21.0371 22.4817 21.0723 22.7246 21.1039C23.7313 21.2307 24.8401 20.9843 25.7694 20.4246C26.9275 19.7311 27.7407 18.6434 28.0645 17.3586C28.156 16.9995 28.1631 16.9256 28.1631 16.2357C28.1631 15.6584 28.149 15.4331 28.0997 15.2078C27.885 14.2152 27.4415 13.395 26.7234 12.6769C26.132 12.089 25.5653 11.737 24.7873 11.4836C24.1889 11.2865 23.587 11.2161 22.9006 11.2618ZM23.9847 11.8989C24.0164 11.9201 23.9953 11.9658 23.9073 12.075C23.763 12.2545 23.5799 12.61 23.4919 12.8916C23.3899 13.2049 23.3652 13.9089 23.4427 14.2609C23.5166 14.5812 23.6891 14.9403 23.8897 15.1797C24.1291 15.4648 24.1854 15.6197 24.1854 16.0069C24.1854 16.373 24.1255 16.5525 23.9425 16.7707C23.7278 17.0242 23.2737 17.1509 22.9322 17.0488C22.531 16.9327 22.281 16.6546 22.1825 16.2075C21.929 15.0846 20.8484 14.2116 19.7079 14.2116C19.5495 14.2116 19.4157 14.1976 19.4157 14.1835C19.4157 14.1659 19.472 14.0603 19.5424 13.9441C20 13.1838 20.7005 12.5678 21.5172 12.2087C21.7812 12.0926 22.2881 11.9377 22.5662 11.8884C22.7774 11.8497 23.9214 11.8602 23.9847 11.8989ZM25.1921 12.3038C26.0264 12.7226 26.7093 13.4091 27.1282 14.2468C27.2655 14.5214 27.4415 14.9896 27.4415 15.0811C27.4415 15.1128 27.3887 15.1269 27.2619 15.1269C27.0226 15.1269 26.6248 15.2219 26.3608 15.3381C25.1217 15.8978 24.562 17.3938 25.1323 18.6293C25.1956 18.7631 25.3083 18.9708 25.3857 19.0905C25.4597 19.2066 25.5688 19.4002 25.6286 19.5234L25.7307 19.7452L25.6462 19.8121C25.4526 19.9634 24.6993 20.3049 24.379 20.3858C23.1505 20.7062 21.9185 20.4844 20.8132 19.7522C19.8522 19.1116 19.1693 18.0802 18.9757 16.9784C18.9475 16.8059 18.9229 16.5842 18.9229 16.4821V16.2955L19.5952 15.7006C20.0669 15.2817 20.2711 15.0811 20.2851 15.0142C20.3027 14.9262 20.3098 14.9227 20.3978 14.9614C20.6196 15.0565 20.9399 15.2853 21.1124 15.4718C21.3517 15.7323 21.5101 16.035 21.6017 16.4011C21.6967 16.7813 21.8093 16.9855 22.0557 17.2178C22.8618 17.9852 24.1396 17.7951 24.6078 16.8376C24.9352 16.1758 24.8472 15.4085 24.386 14.8206C24.1079 14.4721 23.9918 14.1307 23.9918 13.666C23.9918 13.131 24.1783 12.6522 24.5233 12.3073C24.7592 12.0714 24.731 12.0714 25.1921 12.3038ZM18.4758 14.3489C19.032 14.6833 19.4861 14.9614 19.4861 14.9649C19.4861 15.0107 17.6451 16.6053 17.6205 16.5842C17.6064 16.5666 17.5677 16.468 17.5325 16.3624C17.448 16.1054 17.3776 16.0421 17.1769 16.0421C16.7404 16.0421 16.1174 16.3237 15.6316 16.7461C15.0649 17.2354 14.7094 17.876 14.5826 18.6293L14.5369 18.9074L14.4735 18.6188C14.3397 18.0028 14.4242 17.2565 14.6953 16.6616C15.0966 15.7745 16.0047 14.9403 16.9587 14.5812C17.191 14.4968 17.2508 14.4123 17.3177 14.0884C17.3916 13.7435 17.4022 13.7118 17.4339 13.7294C17.4515 13.7364 17.9161 14.0145 18.4758 14.3489ZM27.5752 16.3131C27.5611 16.8024 27.54 16.9608 27.4661 17.2389C27.2619 17.9922 26.9451 18.5624 26.3995 19.1679L26.2305 19.358L26.1461 19.1855C26.1003 19.094 25.9736 18.8793 25.8715 18.7138C25.6321 18.3372 25.5371 18.0696 25.516 17.7141C25.4808 17.1755 25.6779 16.6757 26.0827 16.2709C26.4629 15.8907 26.8254 15.7358 27.3323 15.7288L27.5893 15.7253L27.5752 16.3131ZM14.0124 16.7355C13.9279 16.9291 13.8505 17.2987 13.8223 17.6015C13.7343 18.6258 14.0828 19.7135 14.7622 20.5372C14.9839 20.8012 15.1282 20.8822 15.2937 20.8259C15.4978 20.7555 15.526 20.5654 15.3852 20.2591C15.0966 19.6255 15.0825 18.8053 15.3535 18.14C15.5682 17.6085 16.0329 17.1051 16.5363 16.8587C16.9868 16.637 16.9728 16.6334 17.11 17.0242C17.1734 17.2072 17.2544 17.3797 17.2896 17.4043C17.3248 17.429 17.4128 17.4501 17.4867 17.4501C17.6029 17.4501 17.6557 17.4184 17.9056 17.1931C18.064 17.0559 18.2259 16.9115 18.2681 16.8799L18.3456 16.82L18.4054 17.1403C18.5251 17.774 18.7962 18.4287 19.1763 18.9919C19.4298 19.3756 20.0986 20.0303 20.4964 20.2908C20.6724 20.407 20.9856 20.5794 21.1898 20.6745L21.5629 20.847V22.9837V25.1239H18.2822H15.0015L14.9206 25.2013C14.8431 25.2717 14.8396 25.2999 14.8396 25.7751C14.8396 26.377 14.7938 26.5671 14.6037 26.7501C14.4172 26.9261 14.2658 26.993 14.0476 26.993C13.7237 26.993 13.4245 26.7748 13.3295 26.465C13.3013 26.3664 13.2908 25.0183 13.2908 21.5017V16.6757H13.6639C14.0053 16.6757 14.037 16.6792 14.0124 16.7355ZM12.6923 18.7701V20.8294H12.2699H11.8475V19.3404C11.8475 18.4885 11.8651 17.7599 11.8827 17.6296C11.9285 17.3515 12.02 17.172 12.2031 16.996C12.3263 16.8728 12.5938 16.7109 12.6677 16.7109C12.6818 16.7109 12.6923 17.6367 12.6923 18.7701ZM22.5063 26.0356C22.4782 26.5108 22.3127 26.7713 21.929 26.9437C21.8023 27.0036 21.57 27.0071 18.4864 27.0177L15.181 27.0282L15.2374 26.9437C15.3359 26.7924 15.4063 26.4826 15.4274 26.0989L15.4486 25.7223H18.9862H22.5239L22.5063 26.0356Z" fill="#B17400"/>
<path d="M15.5782 18.9291C15.5325 18.9748 15.5078 19.0452 15.5078 19.1403C15.5078 19.2353 15.5325 19.3057 15.5782 19.3515C15.6451 19.4184 15.6944 19.4219 17.1974 19.4219C18.7005 19.4219 18.7498 19.4184 18.8167 19.3515C18.8624 19.3057 18.8871 19.2353 18.8871 19.1403C18.8871 19.0452 18.8624 18.9748 18.8167 18.9291C18.7498 18.8622 18.7005 18.8587 17.1974 18.8587C15.6944 18.8587 15.6451 18.8622 15.5782 18.9291Z" fill="#B17400"/>
<path d="M15.5782 20.6166C15.5325 20.6623 15.5078 20.7327 15.5078 20.8278C15.5078 20.9228 15.5325 20.9932 15.5782 21.039C15.6451 21.1059 15.6944 21.1094 17.1974 21.1094C18.7005 21.1094 18.7498 21.1059 18.8167 21.039C18.8624 20.9932 18.8871 20.9228 18.8871 20.8278C18.8871 20.7327 18.8624 20.6623 18.8167 20.6166C18.7498 20.5497 18.7005 20.5462 17.1974 20.5462C15.6944 20.5462 15.6451 20.5497 15.5782 20.6166Z" fill="#B17400"/>
<path d="M13.8888 22.308C13.843 22.3537 13.8184 22.4241 13.8184 22.5192C13.8184 22.6142 13.843 22.6846 13.8888 22.7304C13.9592 22.8008 14.0049 22.8008 17.1976 22.8008C20.3903 22.8008 20.4361 22.8008 20.5065 22.7304C20.5523 22.6846 20.5769 22.6142 20.5769 22.5192C20.5769 22.4241 20.5523 22.3537 20.5065 22.308C20.4361 22.2376 20.3903 22.2376 17.1976 22.2376C14.0049 22.2376 13.9592 22.2376 13.8888 22.308Z" fill="#B17400"/>
<path d="M13.8888 23.9994C13.843 24.0451 13.8184 24.1155 13.8184 24.2106C13.8184 24.3056 13.843 24.376 13.8888 24.4218C13.9592 24.4922 14.0049 24.4922 17.1976 24.4922C20.3903 24.4922 20.4361 24.4922 20.5065 24.4218C20.5523 24.376 20.5769 24.3056 20.5769 24.2106C20.5769 24.1155 20.5523 24.0451 20.5065 23.9994C20.4361 23.929 20.3903 23.929 17.1976 23.929C14.0049 23.929 13.9592 23.929 13.8888 23.9994Z" fill="#B17400"/>
<defs>
<linearGradient id="paint0_linear_41260_4916" x1="0" y1="0" x2="29.6532" y2="45.2991" gradientUnits="userSpaceOnUse">
<stop stop-color="#F4EAD8"/>
<stop offset="1" stop-color="#E0B764"/>
</linearGradient>
</defs>
</svg>
