<svg width="40" height="40" viewBox="0 0 40 40" fill="none" xmlns="http://www.w3.org/2000/svg">
<circle cx="20" cy="20" r="20" fill="url(#paint0_linear_41260_4898)"/>
<circle cx="20" cy="20" r="15" fill="#FCF9F6"/>
<path d="M13.3819 11.6264C13.3056 11.6611 13.1947 11.7443 13.1324 11.8066C12.9106 12.0388 12.9141 12.018 12.9141 13.7853C12.9141 15.5733 12.9106 15.5421 13.1601 15.7778C13.3923 15.9996 13.3715 15.9961 15.1387 15.9961C16.9268 15.9961 16.8956 15.9996 17.1312 15.7501C17.353 15.5179 17.3495 15.5387 17.3495 13.7783C17.3495 12.018 17.353 12.0388 17.1312 11.8066C16.8956 11.5571 16.9303 11.5606 15.1318 11.5606C13.6348 11.5606 13.5101 11.5675 13.3819 11.6264ZM16.6011 12.1636C16.6808 12.1947 16.7293 12.2467 16.757 12.323C16.809 12.4824 16.809 15.0743 16.757 15.2337C16.6842 15.4347 16.6392 15.4417 15.1387 15.4417C14.2205 15.4417 13.7561 15.4278 13.6764 15.4035C13.4754 15.3308 13.4685 15.2857 13.4685 13.7853C13.4685 12.8705 13.4824 12.4027 13.5066 12.323C13.5794 12.122 13.614 12.1185 15.1249 12.115C16.213 12.115 16.5075 12.1254 16.6011 12.1636Z" fill="#B17400"/>
<path d="M15.2973 13.4598L14.5765 14.1806L14.4033 14.0073L14.23 13.834L14.0117 14.0524L13.7969 14.2672L14.1884 14.6553L14.5765 15.0469L15.5191 14.1043L16.4651 13.1583L16.2572 12.9504C16.1428 12.8361 16.0423 12.7425 16.0319 12.7425C16.0215 12.7425 15.6924 13.0648 15.2973 13.4598Z" fill="#B17400"/>
<path d="M18.9359 12.2664C18.3884 12.6338 17.9414 12.9387 17.9414 12.9491C17.9414 12.9664 19.8923 14.2728 19.9478 14.2936C19.972 14.304 20.1626 14.0441 20.2735 13.8604C20.2874 13.8327 20.1453 13.7149 19.8542 13.5209L19.4107 13.2228L19.9304 13.2436C21.1086 13.2956 21.9229 13.4931 22.8759 13.954C24.0748 14.5327 25.1109 15.4926 25.7901 16.6465C25.8976 16.8232 25.9876 16.9688 25.998 16.9688C26.0292 16.9688 26.497 16.7262 26.497 16.7054C26.497 16.6638 26.3342 16.3762 26.1609 16.1024C25.1213 14.505 23.5966 13.3892 21.8051 12.9144C21.1641 12.7446 20.8383 12.6996 20.1106 12.6823L19.4245 12.6615L19.8611 12.3704C20.1488 12.1798 20.2874 12.0655 20.2735 12.0377C20.1799 11.8818 19.9755 11.5977 19.9547 11.6011C19.9408 11.6011 19.4834 11.9026 18.9359 12.2664Z" fill="#B17400"/>
<path d="M18.7562 16.6627C18.732 16.7251 18.6904 16.8395 18.6627 16.9157C18.6315 16.9989 18.5864 17.0578 18.5449 17.0682C18.5102 17.0751 18.3751 17.0266 18.2434 16.9642L18.0043 16.8499L17.2731 17.5845L16.5385 18.3157L16.6528 18.5548C16.7152 18.6864 16.7603 18.8216 16.7533 18.8597C16.7464 18.9047 16.6702 18.9498 16.5004 19.0122L16.2578 19.1023V20.1557V21.2091L16.5004 21.2992C16.6702 21.3616 16.7464 21.4066 16.7533 21.4517C16.7603 21.4898 16.7152 21.6249 16.6528 21.7566L16.5385 21.9957L17.2731 22.7303L18.0077 23.465L18.2642 23.3368C18.5726 23.1843 18.5934 23.1947 18.7077 23.5169L18.7874 23.7422H19.8443H20.8977L20.9878 23.4996C21.0502 23.3298 21.0953 23.2536 21.1403 23.2467C21.1784 23.2397 21.3136 23.2848 21.4452 23.3472L21.6843 23.4615L22.4155 22.7269L23.1501 21.9957L23.0358 21.7566C22.9734 21.6249 22.9284 21.4898 22.9353 21.4517C22.9422 21.4066 23.0185 21.3616 23.1883 21.2992L23.4308 21.2091V20.1557V19.1023L23.1883 19.0122C23.0185 18.9498 22.9422 18.9047 22.9353 18.8597C22.9284 18.8216 22.9734 18.6864 23.0358 18.5548L23.1501 18.3157L22.4155 17.5845L21.6843 16.8499L21.4452 16.9642C21.3136 17.0266 21.1784 17.0716 21.1403 17.0647C21.0953 17.0578 21.0502 16.9815 20.9878 16.8117L20.8977 16.5692L19.8512 16.5588L18.8013 16.5519L18.7562 16.6627ZM20.527 17.3038C20.5928 17.4979 20.5963 17.5013 20.8354 17.6018C21.1854 17.7474 21.1854 17.7474 21.3725 17.6573L21.5457 17.5776L21.9824 18.0176L22.4224 18.4543L22.3427 18.6275C22.2526 18.8146 22.2526 18.8146 22.3982 19.1646C22.4987 19.4037 22.5021 19.4072 22.6962 19.473L22.8937 19.5389V20.1557V20.7725L22.6962 20.8383C22.5021 20.9042 22.4987 20.9076 22.3982 21.1467C22.2526 21.4967 22.2526 21.4967 22.3427 21.6838L22.4224 21.8571L21.9824 22.2937L21.5457 22.7338L21.3725 22.6541C21.1854 22.564 21.1854 22.564 20.8354 22.7096C20.5963 22.81 20.5928 22.8135 20.527 23.0076L20.4611 23.2051H19.8443H19.2275L19.1617 23.0076C19.0958 22.8135 19.0924 22.81 18.8533 22.7096C18.5033 22.564 18.5033 22.564 18.3162 22.6541L18.1429 22.7338L17.7063 22.2937L17.2662 21.8571L17.3459 21.6838C17.436 21.4967 17.436 21.4967 17.2904 21.1467C17.19 20.9076 17.1865 20.9042 16.9924 20.8383L16.7949 20.7725V20.1557V19.5389L16.9924 19.473C17.1865 19.4072 17.19 19.4037 17.2904 19.1646C17.436 18.8146 17.436 18.8146 17.3459 18.6275L17.2662 18.4543L17.7063 18.0176L18.1429 17.5776L18.3162 17.6573C18.5033 17.7474 18.5033 17.7474 18.8533 17.6018C19.0924 17.5013 19.0958 17.4979 19.1617 17.3038L19.2275 17.1063H19.8443H20.4611L20.527 17.3038Z" fill="#B17400"/>
<path d="M19.2374 18.004C18.4889 18.2189 17.8721 18.8461 17.6815 19.5877C17.6088 19.8683 17.6088 20.4436 17.6815 20.7242C17.879 21.4866 18.5409 22.145 19.2929 22.3217C19.577 22.3876 20.1107 22.3876 20.3948 22.3217C20.97 22.1866 21.5349 21.743 21.8086 21.2128C21.9992 20.8421 22.0616 20.5856 22.0616 20.156C22.0616 19.7263 21.9992 19.4698 21.8086 19.0991C21.5383 18.5758 20.9908 18.1427 20.4121 17.9937C20.121 17.9174 19.5146 17.9243 19.2374 18.004ZM20.3463 18.5966C20.724 18.7283 21.074 19.0124 21.2715 19.359C21.5418 19.8233 21.5418 20.4886 21.2715 20.953C20.7136 21.9163 19.4107 22.0757 18.6587 21.2718C18.3538 20.946 18.2152 20.5995 18.2152 20.156C18.2152 19.5842 18.4959 19.0817 18.981 18.7664C19.3587 18.5273 19.9339 18.4545 20.3463 18.5966Z" fill="#B17400"/>
<path d="M19.3997 19.1206C18.9977 19.2765 18.7344 19.6854 18.7344 20.1567C18.7344 20.6071 18.9561 20.9744 19.3408 21.1616C19.5903 21.2863 19.9957 21.3002 20.2695 21.1962C20.6888 21.0368 20.9521 20.6383 20.9521 20.1567C20.9521 19.4983 20.4947 19.0443 19.8328 19.0513C19.67 19.0513 19.521 19.0755 19.3997 19.1206ZM20.1135 19.7062C20.564 19.9799 20.37 20.6764 19.8432 20.6764C19.5487 20.6764 19.3235 20.4512 19.3235 20.1567C19.3235 19.8621 19.5487 19.6369 19.8432 19.6369C19.9368 19.6369 20.0442 19.6646 20.1135 19.7062Z" fill="#B17400"/>
<path d="M12.948 17.1852C12.799 17.5109 12.6188 18.0827 12.5218 18.5262C12.3832 19.15 12.3485 19.5623 12.3693 20.3593C12.3901 21.1736 12.4664 21.6207 12.702 22.331C12.7782 22.5563 12.8371 22.7399 12.8337 22.7434C12.8302 22.7434 12.5772 22.6082 12.2723 22.4384C11.9674 22.2721 11.7005 22.13 11.6763 22.13C11.6382 22.13 11.3887 22.5424 11.3887 22.6048C11.3887 22.636 13.6723 23.9112 13.693 23.8904C13.7069 23.873 14.2995 21.3919 14.2995 21.3469C14.2995 21.2949 13.7831 21.1771 13.745 21.2187C13.7312 21.2325 13.6515 21.5306 13.5683 21.8805C13.4886 22.2271 13.4089 22.5008 13.395 22.487C13.3465 22.435 13.1247 21.6934 13.0485 21.333C12.955 20.8826 12.9168 19.8118 12.9792 19.3371C13.0658 18.6856 13.2218 18.0931 13.4539 17.5248C13.5232 17.3654 13.5614 17.2233 13.5475 17.206C13.5336 17.1921 13.4124 17.1332 13.2841 17.0743L13.0485 16.9669L12.948 17.1852Z" fill="#B17400"/>
<path d="M24.4698 18.0054C24.3935 18.04 24.2826 18.1232 24.2203 18.1855C23.9985 18.4177 24.002 18.3969 24.002 20.1642C24.002 21.9522 23.9985 21.9211 24.248 22.1567C24.4802 22.3785 24.4594 22.375 26.2266 22.375C28.0147 22.375 27.9835 22.3785 28.2191 22.129C28.4409 21.8968 28.4374 21.9176 28.4374 20.1573C28.4374 18.3969 28.4409 18.4177 28.2191 18.1855C27.9835 17.936 28.0181 17.9395 26.2197 17.9395C24.7227 17.9395 24.598 17.9464 24.4698 18.0054ZM27.689 18.5425C27.7687 18.5737 27.8172 18.6256 27.8449 18.7019C27.8969 18.8613 27.8969 21.4532 27.8449 21.6126C27.7721 21.8136 27.7271 21.8206 26.2266 21.8206C25.3083 21.8206 24.844 21.8067 24.7643 21.7824C24.5633 21.7097 24.5564 21.6646 24.5564 20.1642C24.5564 19.2494 24.5703 18.7816 24.5945 18.7019C24.6673 18.5009 24.7019 18.4974 26.2128 18.494C27.3008 18.494 27.5954 18.5043 27.689 18.5425Z" fill="#B17400"/>
<path d="M26.3852 19.8348L25.6644 20.5556L25.4912 20.3823L25.3179 20.209L25.0996 20.4274L24.8848 20.6422L25.2763 21.0303L25.6644 21.4219L26.607 20.4793L27.553 19.5333L27.3451 19.3254C27.2307 19.2111 27.1302 19.1175 27.1198 19.1175C27.1094 19.1175 26.7802 19.4398 26.3852 19.8348Z" fill="#B17400"/>
<path d="M25.1565 23.4425C24.5051 23.6088 23.961 23.7544 23.9506 23.7682C23.916 23.8029 24.0442 24.3158 24.0858 24.3158C24.1066 24.3158 24.4566 24.2291 24.8585 24.1286C25.264 24.0247 25.5862 23.9588 25.5724 23.9831C25.458 24.1806 24.9937 24.7454 24.713 25.0261C24.1239 25.6187 23.5764 26.0102 22.814 26.3776C21.2027 27.1642 19.3142 27.2785 17.6266 26.6929C17.3875 26.6097 17.1345 26.5162 17.0618 26.485L16.9301 26.4261L16.8053 26.6894C16.7395 26.835 16.691 26.9597 16.6979 26.9701C16.7464 27.0152 17.4464 27.2785 17.7652 27.3686C18.4513 27.5627 18.829 27.6146 19.6538 27.632C20.4958 27.6528 20.9463 27.6077 21.6081 27.4483C22.6928 27.1815 23.7774 26.6375 24.6194 25.9305C24.9833 25.6291 25.503 25.085 25.7664 24.7316C25.8877 24.5687 25.9986 24.4232 26.0124 24.4093C26.0263 24.3955 26.0748 24.69 26.1199 25.0642L26.1996 25.7434L26.4802 25.7192C26.6327 25.7053 26.7644 25.688 26.7748 25.6811C26.7817 25.6707 26.7193 25.0989 26.6362 24.4093C26.4906 23.2381 26.4768 23.1549 26.4109 23.148C26.3728 23.1445 25.808 23.2797 25.1565 23.4425Z" fill="#B17400"/>
<path d="M11.7178 24.3804C11.6416 24.415 11.5307 24.4982 11.4683 24.5605C11.2465 24.7927 11.25 24.7719 11.25 26.5392C11.25 28.3272 11.2465 28.2961 11.496 28.5317C11.7282 28.7535 11.7074 28.75 13.4747 28.75C15.2627 28.75 15.2315 28.7535 15.4672 28.504C15.689 28.2718 15.6855 28.2926 15.6855 26.5323C15.6855 24.7719 15.689 24.7927 15.4672 24.5605C15.2315 24.311 15.2662 24.3145 13.4677 24.3145C11.9708 24.3145 11.846 24.3214 11.7178 24.3804ZM14.937 24.9175C15.0167 24.9487 15.0652 25.0006 15.0929 25.0769C15.1449 25.2363 15.1449 27.8282 15.0929 27.9876C15.0202 28.1886 14.9751 28.1956 13.4747 28.1956C12.5564 28.1956 12.0921 28.1817 12.0124 28.1574C11.8114 28.0847 11.8044 28.0396 11.8044 26.5392C11.8044 25.6244 11.8183 25.1566 11.8426 25.0769C11.9153 24.8759 11.95 24.8724 13.4608 24.869C14.5489 24.869 14.8434 24.8793 14.937 24.9175Z" fill="#B17400"/>
<path d="M13.6333 26.2098L12.9125 26.9306L12.7392 26.7573L12.566 26.584L12.3477 26.8024L12.1328 27.0172L12.5244 27.4053L12.9125 27.7969L13.855 26.8543L14.801 25.9083L14.5931 25.7004C14.4788 25.5861 14.3783 25.4925 14.3679 25.4925C14.3575 25.4925 14.0283 25.8148 13.6333 26.2098Z" fill="#B17400"/>
<defs>
<linearGradient id="paint0_linear_41260_4898" x1="0" y1="0" x2="29.6532" y2="45.2991" gradientUnits="userSpaceOnUse">
<stop stop-color="#F4EAD8"/>
<stop offset="1" stop-color="#E0B764"/>
</linearGradient>
</defs>
</svg>
