<svg width="40" height="40" viewBox="0 0 40 40" fill="none" xmlns="http://www.w3.org/2000/svg">
<circle cx="20" cy="20" r="20" fill="url(#paint0_linear_41260_4867)"/>
<circle cx="20" cy="20" r="15" fill="#FCF9F6"/>
<path d="M22.2356 12.5283C21.8702 12.6401 21.6768 12.9324 21.6768 13.3751V13.6416H21.204H20.7312V13.3923C20.7269 12.8679 20.4217 12.524 19.9575 12.524C19.4933 12.524 19.1881 12.8679 19.1838 13.3923V13.6416H18.711H18.2382V13.3923C18.2339 12.8679 17.9287 12.524 17.4645 12.524C17.0003 12.524 16.6951 12.8679 16.6908 13.3923V13.6416H16.218H15.7452V13.3966C15.7452 12.8163 15.2896 12.4252 14.7695 12.5627C14.3955 12.6659 14.2021 12.9539 14.1978 13.4095V13.676L13.9313 13.6932C13.3811 13.7276 12.9255 14.0499 12.6633 14.5786L12.5 14.9053V21.1593V27.4176L12.6032 27.6755C12.745 28.0279 13.1361 28.4191 13.4886 28.5609L13.7465 28.6641H18.6895H23.6325L23.9119 28.5308C24.2515 28.3718 24.5567 28.0709 24.72 27.7442L24.8361 27.5035L24.8489 25.5908L24.8618 23.6781L26.5554 21.9802C27.7073 20.824 28.2704 20.2308 28.3177 20.1234C28.3993 19.9214 28.3993 19.5732 28.3177 19.3798C28.236 19.1821 27.8534 18.778 27.6084 18.6362C27.4494 18.5416 27.3634 18.5201 27.1141 18.5201C26.9078 18.5201 26.766 18.5459 26.6628 18.6018C26.5812 18.6448 26.1599 19.0316 25.7301 19.4572L24.9435 20.2394V17.6562C24.9435 14.815 24.9392 14.7677 24.6813 14.3637C24.4234 13.9683 24.0366 13.719 23.5294 13.633L23.2328 13.5814L23.2156 13.2977C23.2027 13.0742 23.1726 12.9711 23.0867 12.8378C22.9104 12.5713 22.5451 12.4381 22.2356 12.5283ZM15.1434 13.2504C15.1907 13.3407 15.2036 14.4153 15.1606 14.5786C15.1391 14.6474 15.1048 14.6732 15.0403 14.6646C14.9543 14.6517 14.95 14.6259 14.9371 13.964C14.9328 13.59 14.9371 13.2547 14.9457 13.2247C14.9801 13.143 15.0919 13.1559 15.1434 13.2504ZM17.6107 13.2375C17.645 13.3235 17.645 14.5184 17.6107 14.6044C17.5978 14.6431 17.5505 14.6732 17.5075 14.6732C17.3914 14.6732 17.3785 14.5915 17.3785 13.921C17.3785 13.2504 17.3914 13.1688 17.5075 13.1688C17.5505 13.1688 17.5978 13.1989 17.6107 13.2375ZM20.065 13.921C20.065 14.6216 20.0607 14.6517 19.979 14.6517C19.8973 14.6517 19.893 14.6173 19.8801 13.964C19.8758 13.59 19.8801 13.2547 19.893 13.2204C19.9059 13.1903 19.9489 13.1688 19.9876 13.1774C20.0564 13.1903 20.065 13.259 20.065 13.921ZM22.558 13.921C22.558 14.6345 22.5537 14.6517 22.4677 14.6646C22.3431 14.6818 22.3216 14.5872 22.3216 13.9081C22.3216 13.3192 22.3602 13.1516 22.4849 13.1774C22.5494 13.1903 22.558 13.2719 22.558 13.921ZM14.2881 14.5571C14.3096 14.9268 14.417 15.1116 14.6878 15.2362C15.2466 15.4898 15.7882 15.1245 15.7882 14.4926V14.2433H16.261H16.7338V14.4239C16.7338 14.9655 17.039 15.3179 17.5075 15.3179C17.976 15.3179 18.2812 14.9655 18.2812 14.4239V14.2433H18.754H19.2268V14.4926C19.2268 15.1374 19.7899 15.5027 20.3444 15.2191C20.6108 15.0901 20.7312 14.8666 20.7312 14.5098V14.2433H21.2255H21.7198V14.5399C21.7198 14.8881 21.8187 15.0686 22.0852 15.2191C22.386 15.391 22.7428 15.3394 23.0007 15.0901C23.1554 14.9397 23.2242 14.7462 23.2242 14.4454V14.2347L23.409 14.2648C23.7529 14.325 24.0194 14.5141 24.1827 14.8236C24.2773 14.9955 24.2773 15.017 24.2902 17.9399L24.3031 20.8799L23.0308 22.1522L21.7628 23.4202L21.5608 24.3314L21.3587 25.2469L21.4447 25.363C21.4963 25.4318 21.5823 25.4876 21.6424 25.4962C21.6983 25.5048 22.141 25.4189 22.6267 25.3114L23.5036 25.118L23.9033 24.7182L24.3031 24.3228L24.2902 25.7842C24.2773 27.1855 24.273 27.2542 24.1827 27.4176C24.0753 27.6196 23.9076 27.7829 23.697 27.8947C23.5552 27.972 23.336 27.9763 18.8829 27.9892C15.5647 27.9978 14.1548 27.9892 13.9958 27.9548C13.6906 27.8904 13.4585 27.7098 13.321 27.4348L13.2092 27.2069V21.1206V15.0342L13.321 14.8107C13.4499 14.5528 13.639 14.3895 13.9055 14.3078C14.2623 14.1961 14.2709 14.2047 14.2881 14.5571ZM27.4924 19.397C27.8534 19.7494 27.8491 19.8225 27.4451 20.2308L27.1356 20.5403L26.7359 20.1406L26.3404 19.7408L26.6456 19.4443C27.0497 19.0488 27.127 19.0445 27.4924 19.397ZM26.2975 20.6048L26.6843 20.9916L25.008 22.668L23.3317 24.3443L22.9362 23.9489L22.5365 23.5491L24.1999 21.8857C25.1197 20.9658 25.8762 20.2179 25.8891 20.2179C25.902 20.2179 26.0869 20.3942 26.2975 20.6048ZM22.6095 24.6495C22.5107 24.7053 22.1496 24.744 22.1496 24.6968C22.1496 24.671 22.1711 24.5549 22.2012 24.4303L22.2528 24.211L22.4591 24.4174C22.6009 24.5549 22.6482 24.628 22.6095 24.6495Z" fill="#B17400"/>
<path d="M14.7439 17.0303C14.645 17.1378 14.6493 17.3957 14.7482 17.4816C14.8213 17.5504 15.1608 17.5547 18.7456 17.5547C22.6098 17.5547 22.6656 17.5547 22.7516 17.4687C22.8548 17.3656 22.8633 17.1807 22.7688 17.0475L22.7043 16.9529H18.7585C14.9889 16.9529 14.8084 16.9572 14.7439 17.0303Z" fill="#B17400"/>
<path d="M14.7439 19.6084C14.645 19.7159 14.6493 19.9738 14.7482 20.0597C14.8213 20.1285 15.1608 20.1328 18.7456 20.1328C22.6098 20.1328 22.6656 20.1328 22.7516 20.0468C22.8548 19.9437 22.8633 19.7589 22.7688 19.6256L22.7043 19.5311H18.7585C14.9889 19.5311 14.8084 19.5354 14.7439 19.6084Z" fill="#B17400"/>
<path d="M14.744 22.1865C14.671 22.2682 14.6452 22.5218 14.7054 22.6078C14.7956 22.7496 14.9203 22.7539 17.7356 22.7539C20.3533 22.7539 20.5553 22.7496 20.6413 22.6765C20.7788 22.5648 20.8003 22.3671 20.6886 22.2252L20.5983 22.1092H17.7056C14.959 22.1092 14.8085 22.1135 14.744 22.1865Z" fill="#B17400"/>
<path d="M14.7566 24.7732C14.7007 24.8291 14.6706 24.915 14.6706 25.0268C14.6706 25.3449 14.5546 25.332 17.3012 25.332C19.6867 25.332 19.7426 25.332 19.8286 25.246C19.9489 25.1256 19.9403 24.8978 19.8157 24.7818L19.7168 24.6872H17.2797C14.8984 24.6872 14.8426 24.6872 14.7566 24.7732Z" fill="#B17400"/>
<defs>
<linearGradient id="paint0_linear_41260_4867" x1="0" y1="0" x2="29.6532" y2="45.2991" gradientUnits="userSpaceOnUse">
<stop stop-color="#F4EAD8"/>
<stop offset="1" stop-color="#E0B764"/>
</linearGradient>
</defs>
</svg>
